<svg width="500" height="500" viewBox="0 0 500 500" fill="none" xmlns="http://www.w3.org/2000/svg">
<rect width="500" height="500" rx="100" fill="#b41149"/>
<path d="M58 209L80 220" stroke="white" stroke-width="18" stroke-linecap="round"/>
<path d="M106 145L117 155" stroke="white" stroke-width="18" stroke-linecap="round"/>
<path d="M170 92.5L180 119" stroke="white" stroke-width="18" stroke-linecap="round"/>
<path d="M250.5 86V96.5" stroke="white" stroke-width="18" stroke-linecap="round"/>
<path d="M330 92.5L320 120" stroke="white" stroke-width="18" stroke-linecap="round"/>
<path d="M391 146L382.5 155.5" stroke="white" stroke-width="18" stroke-linecap="round"/>
<path d="M440.5 209.5L419 219.5" stroke="white" stroke-width="18" stroke-linecap="round"/>
<path d="M303.5 355.5C303.5 355.5 290.5 358.5 277.5 358C264.5 357.5 253 353.5 253 353.5C253 353.5 227.122 382 196 360C187.356 353.89 182.549 346.699 180.115 339.5M183.5 302C183.5 302 179.682 309.38 178.393 319.5M178.393 319.5C178.393 319.5 167.5 320 157.5 311C147.5 302 150.5 291.5 150.5 291.5M178.393 319.5C177.626 325.523 177.754 332.515 180.115 339.5M180.115 339.5C180.115 339.5 141.5 353.5 113 319.5C84.5 285.5 110.5 252.5 110.5 252.5" stroke="white" stroke-width="18" stroke-linecap="round"/>
<path d="M123.5 261.5C123.5 261.5 95.9695 244.5 116 222C121.409 215.925 126.886 213.239 132 212.557M157 223.5C157 223.5 145.826 210.711 132 212.557M132 212.557C132 212.557 127 193.994 144.5 181.5C162 169.005 178 180 178 180" stroke="white" stroke-width="18" stroke-linecap="round"/>
<path d="M174 195.5C174 195.5 174 167.494 204 156.5C234 145.506 251.5 167 251.5 167" stroke="white" stroke-width="18" stroke-linecap="round"/>
<path d="M249.5 180C249.5 180 250.5 154 276 154C289.733 154 296.07 161.541 298.994 168.5M301.5 180C301.5 180 301.5 174.463 298.994 168.5M298.994 168.5C298.994 168.5 324.5 165.5 347 185C369.5 204.5 367 228.5 367 228.5" stroke="white" stroke-width="18" stroke-linecap="round"/>
<path d="M353.5 232C353.5 232 379.5 221.5 391 242C396.548 251.89 394.183 260.616 390.248 267M380 278C380 278 386.027 273.848 390.248 267M390.248 267C390.248 267 412 287 390.248 319.5C388.722 321.781 387.098 323.771 385.398 325.5M327 325.5C327 325.5 362.876 348.411 385.398 325.5M385.398 325.5C385.398 325.5 384 339.959 368 356.5C364.734 359.876 361.531 362.583 358.5 364.752M337.5 373.5C337.5 373.5 346.685 373.209 358.5 364.752M358.5 364.752L366.5 388C366.5 388 371.5 406 358.5 410.5C345.5 415 337.5 406 337.5 406C337.5 406 324 393.5 304.5 386C285 378.5 279 360.5 279 360.5" stroke="white" stroke-width="18" stroke-linecap="round"/>
<path d="M292.5 316C292.5 316 309 334.149 324.5 322C340 309.851 328.5 293 328.5 293" stroke="white" stroke-width="18" stroke-linecap="round"/>
<path d="M192.5 254.5C192.5 254.5 191 240 202 230C213 220 225 221.5 225 221.5M225 274.5C225 274.5 239.463 289.316 259.5 289.021M301 254.5C301 254.5 297.5 278.5 271.5 287C267.339 288.36 263.318 288.965 259.5 289.021M259.5 289.021C259.5 289.021 258.68 300 249 308.5C239.32 317 227.5 316.5 227.5 316.5" stroke="white" stroke-width="18" stroke-linecap="round"/>
</svg>
