<?xml version="1.0" encoding="UTF-8"?>
<!DOCTYPE svg PUBLIC "-//W3C//DTD SVG 1.1//EN" "http://www.w3.org/Graphics/SVG/1.1/DTD/svg11.dtd">
<svg xmlns="http://www.w3.org/2000/svg" version="1.1" width="500px" height="500px" style="shape-rendering:geometricPrecision; text-rendering:geometricPrecision; image-rendering:optimizeQuality; fill-rule:evenodd; clip-rule:evenodd" xmlns:xlink="http://www.w3.org/1999/xlink">
<g><path fill="#b41149" d="M 92.5,-0.5 C 197.167,-0.5 301.833,-0.5 406.5,-0.5C 458.5,9.5 489.5,40.5 499.5,92.5C 499.5,197.167 499.5,301.833 499.5,406.5C 489.5,458.5 458.5,489.5 406.5,499.5C 301.833,499.5 197.167,499.5 92.5,499.5C 40.5,489.5 9.5,458.5 -0.5,406.5C -0.5,301.833 -0.5,197.167 -0.5,92.5C 9.5,40.5 40.5,9.5 92.5,-0.5 Z"/></g>
<g><path fill="#faf5f4" d="M 244.5,78.5 C 247.85,78.335 251.183,78.5017 254.5,79C 256.049,80.214 257.215,81.714 258,83.5C 258.667,88.5 258.667,93.5 258,98.5C 256.315,100.017 254.815,101.684 253.5,103.5C 247.662,105.922 243.495,104.255 241,98.5C 240.333,93.5 240.333,88.5 241,83.5C 241.997,81.6769 243.164,80.0103 244.5,78.5 Z"/></g>
<g><path fill="#fcfafa" d="M 169.5,84.5 C 172.338,85.1705 174.838,86.5038 177,88.5C 180.924,96.6055 184.257,104.939 187,113.5C 189.715,123.101 186.215,127.601 176.5,127C 174.714,126.215 173.214,125.049 172,123.5C 168.592,114.356 164.925,105.356 161,96.5C 160.557,90.1185 163.39,86.1185 169.5,84.5 Z"/></g>
<g><path fill="#fcfafa" d="M 325.5,85.5 C 332.82,84.3183 337.153,87.3183 338.5,94.5C 334.688,104.132 330.855,113.798 327,123.5C 322,128.833 317,128.833 312,123.5C 311.333,120.167 311.333,116.833 312,113.5C 314.383,106.4 317.049,99.3995 320,92.5C 320.967,89.3794 322.8,87.046 325.5,85.5 Z"/></g>
<g><path fill="#fcf8f8" d="M 102.5,136.5 C 111.363,136.831 118.197,140.831 123,148.5C 124.574,160.601 119.741,164.434 108.5,160C 105.667,157.167 102.833,154.333 100,151.5C 98.4796,147.625 98.1462,143.625 99,139.5C 100.145,138.364 101.312,137.364 102.5,136.5 Z"/></g>
<g><path fill="#fbf8f8" d="M 387.5,136.5 C 398.387,134.551 402.553,138.885 400,149.5C 396.454,154.713 391.954,158.88 386.5,162C 376.918,162.36 373.418,157.86 376,148.5C 379.42,143.917 383.253,139.917 387.5,136.5 Z"/></g>
<g><path fill="#fcfafa" d="M 271.5,144.5 C 284.739,144.121 295.406,149.121 303.5,159.5C 331.285,161.135 352.785,173.469 368,196.5C 371.662,203.818 374.328,211.485 376,219.5C 397.43,227.015 405.93,242.015 401.5,264.5C 407.431,277.283 409.264,290.617 407,304.5C 405.456,312.73 402.123,320.063 397,326.5C 392.388,344.23 382.888,358.73 368.5,370C 372.498,376.651 375.331,383.818 377,391.5C 377.72,406.112 371.22,415.945 357.5,421C 348.015,422.727 339.682,420.393 332.5,414C 330.167,410.333 327.167,407.333 323.5,405C 313.167,400.667 302.833,396.333 292.5,392C 282.508,386.34 275.841,378.006 272.5,367C 267.145,366.535 261.978,365.369 257,363.5C 232.115,383.696 207.448,383.362 183,362.5C 180.082,358.632 177.248,354.632 174.5,350.5C 136.046,356.192 109.213,341.192 94,305.5C 87.8284,283.868 90.6617,263.535 102.5,244.5C 99.4425,226.948 105.776,213.948 121.5,205.5C 124.189,187.64 133.856,175.14 150.5,168C 158.601,164.963 166.767,164.797 175,167.5C 196.982,143.412 222.648,138.746 252,153.5C 258.016,149.239 264.516,146.239 271.5,144.5 Z"/></g>
<g><path fill="#b41149" d="M 214.5,163.5 C 224.571,162.518 233.904,164.684 242.5,170C 239.94,175.522 239.94,181.022 242.5,186.5C 247.167,189.167 251.833,189.167 256.5,186.5C 257.999,181.523 259.499,176.523 261,171.5C 270.032,161.285 279.365,160.951 289,170.5C 291.549,174.815 292.882,179.481 293,184.5C 293.465,185.931 294.299,187.097 295.5,188C 303.938,190.789 308.938,187.956 310.5,179.5C 320.852,181.117 330.519,184.617 339.5,190C 348.695,197.891 354.695,207.724 357.5,219.5C 355.268,221.645 352.601,223.145 349.5,224C 343.772,228.76 343.105,234.093 347.5,240C 349.459,240.931 351.459,241.764 353.5,242.5C 359.865,237.656 366.865,236.156 374.5,238C 384.504,243.002 387.67,250.835 384,261.5C 381.195,266.308 377.195,269.642 372,271.5C 368.666,279.5 371.166,284.5 379.5,286.5C 382.863,285.985 385.863,284.652 388.5,282.5C 393.435,296.914 390.102,309.414 378.5,320C 364.866,330.293 350.866,330.96 336.5,322C 342.978,311.63 343.145,301.13 337,290.5C 333.205,287.197 329.038,286.697 324.5,289C 320.853,294.694 320.52,300.694 323.5,307C 320.629,316.862 314.296,319.862 304.5,316C 302.5,313.667 300.5,311.333 298.5,309C 285.496,306.347 281.663,311.18 287,323.5C 295.954,335.096 307.454,338.762 321.5,334.5C 335.412,345.728 351.078,349.562 368.5,346C 358.786,356.525 346.786,362.859 332.5,365C 328.797,368.396 327.631,372.563 329,377.5C 331.633,382.732 335.799,384.565 341.5,383C 345.394,382.036 349.227,380.869 353,379.5C 353.5,379.833 354,380.167 354.5,380.5C 355.98,385.401 357.646,390.234 359.5,395C 357.573,401.561 353.239,403.894 346.5,402C 336.064,390.776 323.398,383.11 308.5,379C 302.601,375.769 297.268,371.769 292.5,367C 298.038,365.949 303.372,364.283 308.5,362C 312.69,355.564 311.356,350.564 304.5,347C 296.759,348.21 288.925,349.043 281,349.5C 271.869,349.441 263.036,347.774 254.5,344.5C 252.803,344.899 251.137,345.399 249.5,346C 235.805,360.005 220.138,362.671 202.5,354C 190.382,345.259 185.215,333.426 187,318.5C 188.218,313.071 189.718,307.738 191.5,302.5C 190.501,293.245 185.834,290.745 177.5,295C 174.573,299.103 172.407,303.603 171,308.5C 162.842,305.872 158.842,300.206 159,291.5C 154.308,284.136 149.308,283.803 144,290.5C 141.517,303.051 145.35,313.218 155.5,321C 159.474,323.602 163.807,325.102 168.5,325.5C 168.768,328.119 168.435,330.619 167.5,333C 137.482,335.303 117.982,322.136 109,293.5C 107.102,284.339 107.769,275.339 111,266.5C 111.308,265.692 111.808,265.025 112.5,264.5C 121.035,273.094 127.368,271.76 131.5,260.5C 131.423,258.701 130.923,257.034 130,255.5C 119.598,249.291 116.598,240.625 121,229.5C 127.572,222.054 135.406,220.22 144.5,224C 147.5,226.333 150.5,228.667 153.5,231C 160.498,232.682 164.498,230.015 165.5,223C 162.667,215.496 157.667,209.829 150.5,206C 147.167,204.667 143.833,203.333 140.5,202C 145.206,190.108 153.873,184.608 166.5,185.5C 162.893,195.736 166.56,200.236 177.5,199C 178.931,198.535 180.097,197.701 181,196.5C 185.45,178.549 196.617,167.549 214.5,163.5 Z"/></g>
<g><path fill="#fbf7f7" d="M 54.5,198.5 C 66.6621,201.162 77.8287,206.162 88,213.5C 90.8141,221.378 88.1474,226.378 80,228.5C 70.5557,225.243 61.389,221.41 52.5,217C 46.7214,210.067 47.3881,203.901 54.5,198.5 Z"/></g>
<g><path fill="#fbf8f8" d="M 438.5,198.5 C 449.241,198.97 452.741,204.304 449,214.5C 447.786,216.049 446.286,217.215 444.5,218C 435.978,221.442 427.478,224.942 419,228.5C 410.853,226.378 408.186,221.378 411,213.5C 419.828,207.837 428.995,202.837 438.5,198.5 Z"/></g>
<g><path fill="#fdfcfc" d="M 220.5,212.5 C 230.714,212.916 233.88,217.916 230,227.5C 229.097,228.701 227.931,229.535 226.5,230C 209.254,230.957 200.421,240.124 200,257.5C 190.838,264.338 185.671,262.005 184.5,250.5C 186.665,228.338 198.665,215.672 220.5,212.5 Z"/></g>
<g><path fill="#fcfafa" d="M 295.5,246.5 C 306.16,245.328 310.327,249.994 308,260.5C 300.956,280.716 287.123,293.382 266.5,298.5C 261.471,312.016 251.805,320.516 237.5,324C 230.75,326.917 224.917,325.75 220,320.5C 219.01,316.556 219.51,312.889 221.5,309.5C 225.963,307.849 230.63,306.682 235.5,306C 240.007,304.494 243.673,301.827 246.5,298C 233.495,295.006 224.161,287.506 218.5,275.5C 219.23,269.937 222.397,266.937 228,266.5C 234.568,270.718 241.401,274.551 248.5,278C 262.302,281.76 274.135,278.593 284,268.5C 287.754,262.992 290.42,256.992 292,250.5C 293.376,249.295 294.542,247.962 295.5,246.5 Z"/></g>
</svg>
