<svg version="1.1" id="Layer_1" xmlns="http://www.w3.org/2000/svg" xmlns:xlink="http://www.w3.org/1999/xlink" x="0px" y="0px"
	 width="100%" viewBox="0 0 1080 1080" enable-background="new 0 0 1080 1080" xml:space="preserve">
<path fill="#7A0000" opacity="1.000000" stroke="none" 
	d="
M202.000000,1081.000000 
	C200.285400,1081.000000 198.570801,1081.000000 196.257355,1080.626709 
	C184.759583,1078.274048 173.688705,1076.961060 162.991425,1074.200439 
	C115.969925,1062.065674 77.382645,1036.673706 47.233013,998.667664 
	C24.368298,969.844788 9.862243,937.201294 3.926422,900.820557 
	C3.010047,895.204041 1.978361,889.606384 1.000000,884.000000 
	C1.000000,882.611084 1.000000,881.222229 1.258908,879.107178 
	C1.345212,874.920715 1.172607,871.460388 1.000001,868.000000 
	C1.000000,650.307495 1.000000,432.614990 1.276225,214.179138 
	C1.368300,210.623856 1.184150,207.811920 1.000000,205.000000 
	C1.000000,202.629120 1.000000,200.258240 1.380739,197.275299 
	C2.906337,188.797104 3.578042,180.827423 5.272607,173.081543 
	C16.528173,121.632095 42.558964,79.222176 84.050171,46.665356 
	C111.306786,25.277966 141.931793,10.948133 176.231384,4.931471 
	C183.817383,3.600775 191.410278,2.309453 199.000000,0.999999 
	C199.444443,1.000000 199.888901,1.000000 200.979660,1.259814 
	C205.417313,1.346418 209.208664,1.173209 213.000000,1.000000 
	C431.359161,1.000000 649.718323,1.000000 868.831055,1.281213 
	C873.056335,1.374952 876.528198,1.187477 880.000000,1.000001 
	C881.066711,1.000000 882.133423,1.000000 883.779175,1.380737 
	C895.935974,3.732696 907.722229,4.895242 919.055237,7.816158 
	C966.243286,19.978249 1004.943848,45.535908 1035.099487,83.745392 
	C1057.770752,112.471657 1072.200195,144.989868 1078.053467,181.209747 
	C1079.012451,187.143570 1080.016724,193.070099 1081.000000,199.000000 
	C1081.000000,199.750000 1081.000000,200.500000 1080.741943,201.934631 
	C1080.656006,206.079514 1080.828003,209.539749 1081.000000,213.000000 
	C1081.000000,431.359161 1081.000000,649.718323 1080.721680,868.827148 
	C1080.629028,872.717896 1080.814575,875.858948 1081.000000,879.000000 
	C1081.000000,880.388916 1081.000000,881.777771 1080.627197,883.767517 
	C1079.523804,889.783813 1078.954712,895.226868 1078.037842,900.610596 
	C1068.698730,955.445679 1042.049438,1000.150146 998.638977,1034.728149 
	C971.255676,1056.539795 940.322144,1070.980835 905.685852,1077.077759 
	C898.127930,1078.408081 890.562134,1079.693726 883.000000,1081.000000 
	C881.933289,1081.000000 880.866577,1081.000000 879.098267,1080.730347 
	C874.931091,1080.640503 871.465576,1080.820190 868.000000,1081.000000 
	C650.307495,1081.000000 432.614990,1081.000000 214.166748,1080.715576 
	C209.607330,1080.620728 205.803665,1080.810303 202.000000,1081.000000 
M656.899475,346.094086 
	C649.022095,338.353333 642.310364,329.529053 631.768127,324.562439 
	C620.570862,319.287140 609.159729,315.239624 596.847839,315.498840 
	C589.764648,315.647980 582.713806,317.904877 575.672852,319.333099 
	C567.991760,320.891205 561.433655,324.668060 555.234009,329.401093 
	C549.839478,333.519440 544.528748,335.858246 537.674561,330.533630 
	C533.093140,326.974609 526.746887,325.582001 521.064026,323.578583 
	C516.294128,321.897003 511.402008,320.445099 506.455658,319.408539 
	C498.789032,317.801941 491.077393,316.067596 483.298920,315.421570 
	C472.902496,314.558167 462.644653,316.159821 452.658508,319.415924 
	C445.581604,321.723450 438.307343,323.443695 431.284241,325.893494 
	C423.605652,328.571960 416.523621,332.508331 410.083496,337.554596 
	C406.913910,340.038147 403.401642,342.113190 400.395081,344.769897 
	C394.417938,350.051605 388.039215,355.097748 383.141449,361.282562 
	C380.945740,364.055267 379.516205,363.787750 377.233673,363.374268 
	C374.913483,362.953949 372.670654,362.083649 370.345581,361.717560 
	C364.932770,360.865356 359.114685,363.469391 353.986389,359.760651 
	C353.535095,359.434296 352.441895,359.937378 351.665466,360.130066 
	C349.670380,360.625092 347.712799,361.338318 345.691742,361.648376 
	C340.274445,362.479431 334.425140,362.126251 329.487274,364.097046 
	C320.357361,367.740997 310.664062,371.370789 303.206879,377.458252 
	C293.660980,385.250732 284.788849,394.607849 278.030212,404.873383 
	C270.869873,415.748993 266.401031,428.417664 266.630554,442.095734 
	C266.653168,443.444427 265.083069,445.148926 263.819916,446.134033 
	C257.857849,450.783936 251.401382,454.857727 245.795868,459.888641 
	C241.366837,463.863647 237.900879,468.916382 234.037109,473.515594 
	C226.172485,482.877014 222.548325,494.366333 220.790939,505.877045 
	C219.638245,513.427185 217.982056,521.977783 222.325119,529.638611 
	C222.638367,530.191162 222.361328,531.336914 221.979309,531.982361 
	C219.779587,535.698914 217.338303,539.275940 215.215195,543.033691 
	C209.956833,552.340881 205.828110,562.122864 203.477158,572.588379 
	C202.635040,576.337097 201.890579,580.112610 201.251419,583.901123 
	C199.836746,592.286194 198.008865,600.647949 197.354156,609.096985 
	C196.976883,613.965515 198.737930,618.968750 199.214218,623.942261 
	C199.817322,630.239746 198.687042,636.522034 201.125000,642.880432 
	C203.035858,647.864075 202.766479,653.676880 203.542160,659.110413 
	C203.649582,659.862854 204.163010,660.570984 204.545486,661.268433 
	C209.753784,670.765747 215.286972,680.101074 220.104599,689.792175 
	C225.562302,700.770874 232.158966,710.791748 241.291382,719.035522 
	C247.718414,724.837280 253.821014,731.088867 260.753448,736.212952 
	C266.729614,740.630066 273.414490,744.344421 280.257111,747.266296 
	C288.256073,750.681885 295.816315,755.450134 304.847870,756.283142 
	C308.141357,756.586914 311.330383,757.932800 314.591400,758.699951 
	C320.165192,760.011230 325.728882,762.141479 331.348938,762.324219 
	C344.474945,762.750977 357.699860,763.470581 370.683929,760.385681 
	C372.824249,759.877197 374.922058,759.067017 377.086670,758.833679 
	C378.209290,758.712646 379.950348,759.184509 380.534271,760.009705 
	C386.149231,767.944641 391.073944,776.426086 397.228180,783.901611 
	C401.622528,789.239380 407.497253,793.397461 412.910828,797.838867 
	C415.217468,799.731262 417.901459,801.302673 420.640015,802.505371 
	C431.393677,807.228027 441.043365,814.514587 453.406464,815.534729 
	C460.189453,816.094360 466.802490,818.734436 473.584839,819.275940 
	C480.170197,819.801819 486.912689,818.280334 493.432831,817.863464 
	C505.380371,817.099609 515.857483,812.685974 526.576904,808.720093 
	C535.771973,805.318237 544.584167,800.284607 551.112366,793.084595 
	C555.878662,787.827759 560.665710,789.103394 565.252014,790.410828 
	C571.947021,792.319336 578.430847,794.438477 585.517517,794.183899 
	C591.630371,793.964355 594.451111,796.688965 595.859436,802.711548 
	C598.057007,812.109619 603.130920,820.218750 609.209839,827.383179 
	C615.382751,834.658569 622.736938,840.701111 631.210449,845.662109 
	C640.470947,851.083740 649.637939,856.262024 659.842224,859.785767 
	C670.458252,863.451599 680.720154,868.132202 691.201538,872.202515 
	C699.823486,875.550720 706.066284,882.295532 713.323486,887.557190 
	C716.198059,889.641357 717.509216,893.793701 720.259399,896.158813 
	C724.224060,899.568237 728.654236,902.564026 733.239197,905.096436 
	C741.634460,909.733521 750.382935,913.412170 760.404297,912.321838 
	C763.533569,911.981384 766.748291,912.467712 769.891357,912.197083 
	C771.895020,912.024597 774.008484,911.478027 775.778992,910.542908 
	C782.265259,907.117188 788.377625,902.856628 795.106384,900.050964 
	C802.317383,897.044373 804.633057,890.124451 808.661804,884.795898 
	C812.935791,879.143127 813.683167,871.519714 815.937561,864.771667 
	C819.080505,855.363892 816.201172,847.200562 814.356384,838.690552 
	C813.226440,833.477966 810.854553,828.521667 808.906860,823.502136 
	C805.955811,815.896851 802.888611,808.336670 799.596680,800.068726 
	C802.023926,798.239685 805.897705,796.017700 808.882080,792.934814 
	C816.397278,785.171265 823.773193,777.237366 830.683044,768.937256 
	C834.523132,764.324524 837.699341,759.041321 840.495117,753.704163 
	C844.844360,745.401611 848.854980,736.898499 852.537292,728.278748 
	C854.646973,723.340210 856.404663,718.091431 857.205872,712.813049 
	C857.693848,709.598633 858.426758,707.196228 860.919739,705.219666 
	C861.935120,704.414551 862.740540,703.325439 863.567139,702.305298 
	C865.991516,699.313538 868.378601,696.291443 870.780273,693.281250 
	C872.504517,691.155518 873.536743,688.308899 874.272461,685.387512 
	C875.871460,679.038757 876.127747,672.020020 879.096436,666.422607 
	C884.070862,657.043518 881.777466,646.751099 884.559265,637.165405 
	C885.602478,633.570618 883.353577,629.060059 882.769592,624.943787 
	C881.976196,619.351257 881.366638,613.732849 880.630920,608.131775 
	C879.346558,598.354553 875.418396,589.530945 871.010986,580.829285 
	C869.872986,578.582581 868.316589,576.529236 869.747742,573.037354 
	C871.585938,568.552002 871.978516,563.274109 872.083008,558.318420 
	C872.326599,546.776550 872.540649,535.364929 868.274170,524.053589 
	C865.379395,516.378967 861.741028,509.334106 856.520508,503.426178 
	C851.058044,497.244293 844.709106,491.588135 837.909424,486.924286 
	C832.113342,482.948883 825.316650,480.133789 818.595520,477.920013 
	C814.701355,476.637360 813.007019,475.148834 813.075684,471.213593 
	C813.109497,469.271240 812.909485,467.250519 812.380737,465.388672 
	C811.387329,461.890381 810.110352,458.470398 808.893372,455.038361 
	C807.041687,449.816315 805.507019,444.439697 803.161011,439.446625 
	C800.668091,434.140717 797.636047,429.039795 794.390625,424.147064 
	C789.515930,416.798218 784.956604,409.046906 778.980652,402.668243 
	C770.595093,393.717438 761.694336,384.944855 751.766907,377.838013 
	C743.638367,372.018982 734.590515,367.233673 725.326782,362.815125 
	C714.036743,357.429993 702.221375,354.638824 690.514954,351.475189 
	C681.992859,349.172150 672.694946,349.729431 663.739929,349.049988 
	C662.248230,348.936798 660.681580,349.266266 659.264099,348.921082 
	C658.406128,348.712189 657.768555,347.598572 656.899475,346.094086 
M948.564331,477.746887 
	C950.493774,477.042389 952.462646,476.429138 954.344666,475.615051 
	C958.841736,473.669952 963.629761,472.144653 967.699280,469.518402 
	C975.447876,464.517944 976.014648,456.537354 975.641663,448.146393 
	C975.326111,441.047028 965.660706,431.518280 958.645508,431.175079 
	C953.253845,430.911255 949.034363,433.108948 944.436218,435.283173 
	C938.165527,438.248260 931.343445,440.030853 925.000366,442.863739 
	C916.898560,446.482056 909.146118,450.882843 901.042969,454.497833 
	C893.561646,457.835419 888.646912,463.348999 887.136230,471.118469 
	C886.066345,476.621460 888.725403,481.622559 892.106140,486.225952 
	C895.519531,490.873718 900.517883,492.534210 905.421753,494.404083 
	C906.690369,494.887848 908.594116,494.171539 910.051392,493.606964 
	C914.322754,491.952240 918.516602,490.097443 922.739990,488.318939 
	C931.078674,484.807556 939.416809,481.294708 948.564331,477.746887 
M118.510056,471.815948 
	C123.982414,473.866638 129.552124,475.692932 134.906418,478.015747 
	C145.375137,482.557251 155.655396,487.536987 166.161728,491.985657 
	C169.479935,493.390656 173.485809,494.839264 176.795242,494.221832 
	C182.299393,493.194916 187.621841,490.382385 190.592117,485.259857 
	C193.163391,480.825409 197.526627,476.358551 193.319580,470.475372 
	C192.898514,469.886566 192.895782,468.846497 193.002228,468.056763 
	C193.812271,462.048096 188.973495,459.398682 185.355240,456.889587 
	C178.867020,452.390228 170.523315,451.299072 164.131165,446.206085 
	C161.693924,444.264191 158.531769,443.159241 155.589783,441.938446 
	C148.879028,439.153778 141.933517,436.882385 135.390366,433.759277 
	C126.868576,429.691803 118.440552,430.643616 111.818550,437.326111 
	C106.213364,442.982544 106.295105,449.491547 106.440758,456.387970 
	C106.561508,462.105255 112.024590,469.442505 118.510056,471.815948 
M408.124908,261.099792 
	C408.081543,257.109863 409.044098,252.772034 407.807007,249.194931 
	C404.033295,238.282974 399.558990,227.602188 395.070770,216.952225 
	C391.929901,209.499344 388.290192,202.257721 384.930206,194.895752 
	C383.096802,190.878662 372.719543,184.311447 368.750397,185.052765 
	C362.073822,186.299759 355.802094,189.005219 352.493042,195.087189 
	C350.381531,198.968079 348.626007,204.228043 349.489563,208.277023 
	C350.950867,215.128281 354.681396,221.482605 357.330261,228.096970 
	C360.272552,235.444092 363.017426,242.870255 365.952454,250.220383 
	C367.947754,255.217133 370.590057,260.005798 372.087128,265.137238 
	C373.626740,270.414703 380.729309,276.785645 386.313507,277.417389 
	C396.902222,278.615234 404.859802,271.750854 408.124908,261.099792 
M690.001953,277.352356 
	C691.833923,277.352783 693.667480,277.403046 695.497559,277.343842 
	C700.065308,277.196106 708.627991,270.523987 709.817322,266.776428 
	C711.438843,261.667511 713.419434,256.663818 715.431396,251.689987 
	C717.631226,246.251846 720.226501,240.969513 722.318359,235.492813 
	C725.492004,227.183838 728.203003,218.696213 731.456116,210.420288 
	C733.376709,205.534485 732.336487,198.453079 729.083679,194.300522 
	C723.599182,187.298813 716.279358,185.394287 708.130859,186.759796 
	C703.531738,187.530533 699.300964,190.141571 697.167603,194.678207 
	C694.125671,201.146805 691.348083,207.744217 688.609314,214.349533 
	C685.698242,221.370483 683.031738,228.492722 680.129517,235.517456 
	C678.190857,240.209717 675.506714,244.653641 674.065979,249.480270 
	C670.453369,261.583344 676.608521,272.561951 690.001953,277.352356 
M857.612305,335.106537 
	C859.984009,332.046753 862.380432,329.005707 864.722473,325.923370 
	C870.094360,318.853394 869.208313,306.645447 862.783508,300.598450 
	C856.484497,294.669830 842.757324,293.362885 833.738708,302.258759 
	C826.766663,309.135925 820.454590,316.683960 813.903076,323.982178 
	C813.411072,324.530273 813.422974,325.501007 813.080811,326.218018 
	C810.824890,330.945221 811.559326,335.513214 812.968628,340.408142 
	C814.661133,346.286560 822.542908,353.059082 828.698486,353.349487 
	C836.048035,353.696228 841.738037,350.310120 846.905029,345.773224 
	C850.509155,342.608551 853.776794,339.060608 857.612305,335.106537 
M268.916992,327.948669 
	C268.587036,326.560516 268.660858,324.852783 267.858215,323.838776 
	C264.112488,319.106750 260.387238,314.305664 256.145996,310.034332 
	C252.291092,306.152039 247.817978,302.874695 243.550842,299.412720 
	C237.535538,294.532410 225.150131,295.229492 219.362457,300.414490 
	C211.918243,307.083588 211.355698,322.040070 220.595810,331.431061 
	C225.695465,336.613953 230.472549,342.232239 236.145493,346.701721 
	C242.567215,351.761169 249.498947,356.135712 258.535736,351.296783 
	C265.009796,347.830109 268.916779,342.794952 268.917175,335.336121 
	C268.917297,333.174805 268.917175,331.013458 268.916992,327.948669 
M546.062134,171.827026 
	C541.246277,171.869385 536.353699,171.404434 531.639465,172.118073 
	C528.009216,172.667618 522.028748,182.456558 522.003723,186.526093 
	C521.961792,193.341858 522.274170,200.173172 521.909973,206.969681 
	C521.570618,213.303314 524.755981,217.571915 528.603149,222.014603 
	C532.278931,226.259399 536.550476,226.987457 541.739319,226.814316 
	C550.925415,226.507767 559.990723,217.693451 560.005920,208.493622 
	C560.015808,202.508835 560.261169,196.509216 559.913330,190.544708 
	C559.702576,186.930954 559.393921,182.875748 557.629700,179.911209 
	C555.343323,176.069199 552.826538,171.385803 546.062134,171.827026 
z"/>
<path fill="#FFFEFE" opacity="1.000000" stroke="none" 
	d="
M883.468628,1081.000000 
	C890.562134,1079.693726 898.127930,1078.408081 905.685852,1077.077759 
	C940.322144,1070.980835 971.255676,1056.539795 998.638977,1034.728149 
	C1042.049438,1000.150146 1068.698730,955.445679 1078.037842,900.610596 
	C1078.954712,895.226868 1079.523804,889.783813 1080.627197,884.184204 
	C1081.000000,949.593872 1081.000000,1015.187744 1081.000000,1081.000000 
	C1015.312622,1081.000000 949.624939,1081.000000 883.468628,1081.000000 
z"/>
<path fill="#FFFEFE" opacity="1.000000" stroke="none" 
	d="
M1081.000000,198.531342 
	C1080.016724,193.070099 1079.012451,187.143570 1078.053467,181.209747 
	C1072.200195,144.989868 1057.770752,112.471657 1035.099487,83.745392 
	C1004.943848,45.535908 966.243286,19.978249 919.055237,7.816158 
	C907.722229,4.895242 895.935974,3.732696 884.179077,1.380737 
	C949.593872,1.000000 1015.187744,1.000000 1081.000000,1.000000 
	C1081.000000,66.687401 1081.000000,132.375046 1081.000000,198.531342 
z"/>
<path fill="#FFFEFE" opacity="1.000000" stroke="none" 
	d="
M198.531342,0.999999 
	C191.410278,2.309453 183.817383,3.600775 176.231384,4.931471 
	C141.931793,10.948133 111.306786,25.277966 84.050171,46.665356 
	C42.558964,79.222176 16.528173,121.632095 5.272607,173.081543 
	C3.578042,180.827423 2.906337,188.797104 1.380739,196.831635 
	C1.000000,131.739273 1.000000,66.478531 1.000000,1.000000 
	C66.687401,1.000000 132.375046,1.000000 198.531342,0.999999 
z"/>
<path fill="#FFFEFE" opacity="1.000000" stroke="none" 
	d="
M1.000000,884.468628 
	C1.978361,889.606384 3.010047,895.204041 3.926422,900.820557 
	C9.862243,937.201294 24.368298,969.844788 47.233013,998.667664 
	C77.382645,1036.673706 115.969925,1062.065674 162.991425,1074.200439 
	C173.688705,1076.961060 184.759583,1078.274048 195.829254,1080.626709 
	C131.072601,1081.000000 66.145218,1081.000000 1.000000,1081.000000 
	C1.000000,1015.645935 1.000000,950.291626 1.000000,884.468628 
z"/>
<path fill="#3D0101" opacity="1.000000" stroke="none" 
	d="
M212.539368,1.000000 
	C209.208664,1.173209 205.417313,1.346418 201.312988,1.259814 
	C204.692902,1.000000 208.385818,1.000000 212.539368,1.000000 
z"/>
<path fill="#3A0101" opacity="1.000000" stroke="none" 
	d="
M202.460632,1081.000000 
	C205.803665,1080.810303 209.607330,1080.620728 213.705505,1080.715576 
	C210.307098,1081.000000 206.614182,1081.000000 202.460632,1081.000000 
z"/>
<path fill="#3B0101" opacity="1.000000" stroke="none" 
	d="
M1081.000000,212.541931 
	C1080.828003,209.539749 1080.656006,206.079514 1080.741943,202.309631 
	C1081.000000,205.361282 1081.000000,208.722580 1081.000000,212.541931 
z"/>
<path fill="#3D0101" opacity="1.000000" stroke="none" 
	d="
M1.000001,868.458069 
	C1.172607,871.460388 1.345212,874.920715 1.258908,878.690552 
	C1.000000,875.638733 1.000000,872.277405 1.000001,868.458069 
z"/>
<path fill="#3D0101" opacity="1.000000" stroke="none" 
	d="
M879.541931,1.000001 
	C876.528198,1.187477 873.056335,1.374952 869.292236,1.281213 
	C872.361267,1.000000 875.722595,1.000000 879.541931,1.000001 
z"/>
<path fill="#3A0101" opacity="1.000000" stroke="none" 
	d="
M868.458069,1081.000000 
	C871.465576,1080.820190 874.931091,1080.640503 878.698364,1080.730347 
	C875.638733,1081.000000 872.277405,1081.000000 868.458069,1081.000000 
z"/>
<path fill="#3B0101" opacity="1.000000" stroke="none" 
	d="
M1081.000000,878.545898 
	C1080.814575,875.858948 1080.629028,872.717896 1080.721680,869.288452 
	C1081.000000,872.030579 1081.000000,875.061218 1081.000000,878.545898 
z"/>
<path fill="#3D0101" opacity="1.000000" stroke="none" 
	d="
M1.000000,205.449982 
	C1.184150,207.811920 1.368300,210.623856 1.276225,213.717896 
	C1.000000,211.299988 1.000000,208.599976 1.000000,205.449982 
z"/>
<path fill="#FDFBFB" opacity="1.000000" stroke="none" 
	d="
M656.965698,346.492767 
	C657.768555,347.598572 658.406128,348.712189 659.264099,348.921082 
	C660.681580,349.266266 662.248230,348.936798 663.739929,349.049988 
	C672.694946,349.729431 681.992859,349.172150 690.514954,351.475189 
	C702.221375,354.638824 714.036743,357.429993 725.326782,362.815125 
	C734.590515,367.233673 743.638367,372.018982 751.766907,377.838013 
	C761.694336,384.944855 770.595093,393.717438 778.980652,402.668243 
	C784.956604,409.046906 789.515930,416.798218 794.390625,424.147064 
	C797.636047,429.039795 800.668091,434.140717 803.161011,439.446625 
	C805.507019,444.439697 807.041687,449.816315 808.893372,455.038361 
	C810.110352,458.470398 811.387329,461.890381 812.380737,465.388672 
	C812.909485,467.250519 813.109497,469.271240 813.075684,471.213593 
	C813.007019,475.148834 814.701355,476.637360 818.595520,477.920013 
	C825.316650,480.133789 832.113342,482.948883 837.909424,486.924286 
	C844.709106,491.588135 851.058044,497.244293 856.520508,503.426178 
	C861.741028,509.334106 865.379395,516.378967 868.274170,524.053589 
	C872.540649,535.364929 872.326599,546.776550 872.083008,558.318420 
	C871.978516,563.274109 871.585938,568.552002 869.747742,573.037354 
	C868.316589,576.529236 869.872986,578.582581 871.010986,580.829285 
	C875.418396,589.530945 879.346558,598.354553 880.630920,608.131775 
	C881.366638,613.732849 881.976196,619.351257 882.769592,624.943787 
	C883.353577,629.060059 885.602478,633.570618 884.559265,637.165405 
	C881.777466,646.751099 884.070862,657.043518 879.096436,666.422607 
	C876.127747,672.020020 875.871460,679.038757 874.272461,685.387512 
	C873.536743,688.308899 872.504517,691.155518 870.780273,693.281250 
	C868.378601,696.291443 865.991516,699.313538 863.567139,702.305298 
	C862.740540,703.325439 861.935120,704.414551 860.919739,705.219666 
	C858.426758,707.196228 857.693848,709.598633 857.205872,712.813049 
	C856.404663,718.091431 854.646973,723.340210 852.537292,728.278748 
	C848.854980,736.898499 844.844360,745.401611 840.495117,753.704163 
	C837.699341,759.041321 834.523132,764.324524 830.683044,768.937256 
	C823.773193,777.237366 816.397278,785.171265 808.882080,792.934814 
	C805.897705,796.017700 802.023926,798.239685 799.596680,800.068726 
	C802.888611,808.336670 805.955811,815.896851 808.906860,823.502136 
	C810.854553,828.521667 813.226440,833.477966 814.356384,838.690552 
	C816.201172,847.200562 819.080505,855.363892 815.937561,864.771667 
	C813.683167,871.519714 812.935791,879.143127 808.661804,884.795898 
	C804.633057,890.124451 802.317383,897.044373 795.106384,900.050964 
	C788.377625,902.856628 782.265259,907.117188 775.778992,910.542908 
	C774.008484,911.478027 771.895020,912.024597 769.891357,912.197083 
	C766.748291,912.467712 763.533569,911.981384 760.404297,912.321838 
	C750.382935,913.412170 741.634460,909.733521 733.239197,905.096436 
	C728.654236,902.564026 724.224060,899.568237 720.259399,896.158813 
	C717.509216,893.793701 716.198059,889.641357 713.323486,887.557190 
	C706.066284,882.295532 699.823486,875.550720 691.201538,872.202515 
	C680.720154,868.132202 670.458252,863.451599 659.842224,859.785767 
	C649.637939,856.262024 640.470947,851.083740 631.210449,845.662109 
	C622.736938,840.701111 615.382751,834.658569 609.209839,827.383179 
	C603.130920,820.218750 598.057007,812.109619 595.859436,802.711548 
	C594.451111,796.688965 591.630371,793.964355 585.517517,794.183899 
	C578.430847,794.438477 571.947021,792.319336 565.252014,790.410828 
	C560.665710,789.103394 555.878662,787.827759 551.112366,793.084595 
	C544.584167,800.284607 535.771973,805.318237 526.576904,808.720093 
	C515.857483,812.685974 505.380371,817.099609 493.432831,817.863464 
	C486.912689,818.280334 480.170197,819.801819 473.584839,819.275940 
	C466.802490,818.734436 460.189453,816.094360 453.406464,815.534729 
	C441.043365,814.514587 431.393677,807.228027 420.640015,802.505371 
	C417.901459,801.302673 415.217468,799.731262 412.910828,797.838867 
	C407.497253,793.397461 401.622528,789.239380 397.228180,783.901611 
	C391.073944,776.426086 386.149231,767.944641 380.534271,760.009705 
	C379.950348,759.184509 378.209290,758.712646 377.086670,758.833679 
	C374.922058,759.067017 372.824249,759.877197 370.683929,760.385681 
	C357.699860,763.470581 344.474945,762.750977 331.348938,762.324219 
	C325.728882,762.141479 320.165192,760.011230 314.591400,758.699951 
	C311.330383,757.932800 308.141357,756.586914 304.847870,756.283142 
	C295.816315,755.450134 288.256073,750.681885 280.257111,747.266296 
	C273.414490,744.344421 266.729614,740.630066 260.753448,736.212952 
	C253.821014,731.088867 247.718414,724.837280 241.291382,719.035522 
	C232.158966,710.791748 225.562302,700.770874 220.104599,689.792175 
	C215.286972,680.101074 209.753784,670.765747 204.545486,661.268433 
	C204.163010,660.570984 203.649582,659.862854 203.542160,659.110413 
	C202.766479,653.676880 203.035858,647.864075 201.125000,642.880432 
	C198.687042,636.522034 199.817322,630.239746 199.214218,623.942261 
	C198.737930,618.968750 196.976883,613.965515 197.354156,609.096985 
	C198.008865,600.647949 199.836746,592.286194 201.251419,583.901123 
	C201.890579,580.112610 202.635040,576.337097 203.477158,572.588379 
	C205.828110,562.122864 209.956833,552.340881 215.215195,543.033691 
	C217.338303,539.275940 219.779587,535.698914 221.979309,531.982361 
	C222.361328,531.336914 222.638367,530.191162 222.325119,529.638611 
	C217.982056,521.977783 219.638245,513.427185 220.790939,505.877045 
	C222.548325,494.366333 226.172485,482.877014 234.037109,473.515594 
	C237.900879,468.916382 241.366837,463.863647 245.795868,459.888641 
	C251.401382,454.857727 257.857849,450.783936 263.819916,446.134033 
	C265.083069,445.148926 266.653168,443.444427 266.630554,442.095734 
	C266.401031,428.417664 270.869873,415.748993 278.030212,404.873383 
	C284.788849,394.607849 293.660980,385.250732 303.206879,377.458252 
	C310.664062,371.370789 320.357361,367.740997 329.487274,364.097046 
	C334.425140,362.126251 340.274445,362.479431 345.691742,361.648376 
	C347.712799,361.338318 349.670380,360.625092 351.665466,360.130066 
	C352.441895,359.937378 353.535095,359.434296 353.986389,359.760651 
	C359.114685,363.469391 364.932770,360.865356 370.345581,361.717560 
	C372.670654,362.083649 374.913483,362.953949 377.233673,363.374268 
	C379.516205,363.787750 380.945740,364.055267 383.141449,361.282562 
	C388.039215,355.097748 394.417938,350.051605 400.395081,344.769897 
	C403.401642,342.113190 406.913910,340.038147 410.083496,337.554596 
	C416.523621,332.508331 423.605652,328.571960 431.284241,325.893494 
	C438.307343,323.443695 445.581604,321.723450 452.658508,319.415924 
	C462.644653,316.159821 472.902496,314.558167 483.298920,315.421570 
	C491.077393,316.067596 498.789032,317.801941 506.455658,319.408539 
	C511.402008,320.445099 516.294128,321.897003 521.064026,323.578583 
	C526.746887,325.582001 533.093140,326.974609 537.674561,330.533630 
	C544.528748,335.858246 549.839478,333.519440 555.234009,329.401093 
	C561.433655,324.668060 567.991760,320.891205 575.672852,319.333099 
	C582.713806,317.904877 589.764648,315.647980 596.847839,315.498840 
	C609.159729,315.239624 620.570862,319.287140 631.768127,324.562439 
	C642.310364,329.529053 649.022095,338.353333 656.965698,346.492767 
M524.116455,374.590942 
	C524.521790,372.601837 524.927063,370.612732 525.339417,368.588989 
	C522.988831,367.431946 520.328918,366.266724 517.806274,364.855927 
	C506.973053,358.797607 495.294647,355.609222 482.967621,355.502045 
	C476.194580,355.443146 469.368195,354.266907 462.566376,357.294373 
	C457.115662,359.720428 450.353210,359.406219 445.165619,362.170868 
	C436.164124,366.968048 427.640656,372.824097 419.499939,379.004303 
	C415.615204,381.953552 413.143555,386.729004 409.900085,390.565887 
	C404.011383,397.531860 400.535675,405.704865 397.504517,414.179871 
	C395.860382,418.776794 394.233459,423.568909 391.541595,427.559967 
	C386.941650,434.379974 379.336914,434.174072 372.362885,433.208496 
	C368.708191,432.702484 364.011047,430.762726 362.161285,427.922577 
	C357.290131,420.443390 354.595428,412.116180 360.849854,403.636963 
	C362.322205,401.640930 362.232574,399.470306 359.088104,399.765228 
	C353.131958,400.323822 346.984863,400.607971 341.354279,402.388611 
	C335.539001,404.227661 329.846527,407.143005 324.840485,410.645447 
	C320.463196,413.708008 316.522278,417.829010 313.465546,422.230377 
	C309.927521,427.324738 307.566864,433.236755 304.779816,438.629761 
	C314.015472,442.693970 323.241821,444.070374 331.351929,449.773132 
	C341.021698,456.572723 350.504120,463.178955 356.338684,473.613678 
	C358.281036,477.087433 359.302734,481.486298 359.335663,485.473846 
	C359.357788,488.153351 356.580688,490.742889 355.613129,493.563812 
	C352.012970,504.059784 337.473145,505.844269 329.888916,499.601044 
	C324.489410,495.156281 319.196930,490.574951 313.981537,485.914917 
	C308.231506,480.777161 300.317413,480.041473 294.081116,480.535950 
	C287.652527,481.045685 280.613861,482.891144 274.114960,487.457031 
	C263.791199,494.710175 260.344269,504.260010 258.417023,515.301636 
	C257.218140,522.170471 260.417755,528.299316 263.263184,534.167053 
	C266.108368,540.034241 270.593018,544.402283 276.499084,547.952576 
	C281.783752,551.129272 285.815735,556.285156 285.912598,563.620972 
	C286.004883,570.610107 282.300171,574.958679 277.884369,579.533813 
	C272.126862,585.499023 264.905823,585.563049 258.487305,582.184509 
	C253.544678,579.582886 248.999100,576.226929 243.742584,572.864563 
	C242.275208,578.081299 240.498398,583.190002 239.453415,588.444397 
	C238.354111,593.971924 237.983963,599.642639 237.224457,605.241211 
	C237.077194,606.326660 236.398956,607.353149 236.321762,608.432373 
	C236.123077,611.210388 235.995132,614.007629 236.104752,616.786804 
	C236.152740,618.003418 237.088150,619.170715 237.210602,620.401245 
	C237.803955,626.364197 236.515732,632.305115 239.150894,638.329773 
	C242.247528,645.409485 242.969162,653.573853 246.339813,660.477295 
	C251.548615,671.145508 257.624542,681.516113 266.719269,689.584106 
	C270.965118,693.350647 275.161407,697.226685 279.752502,700.536682 
	C285.443298,704.639404 291.508759,708.224670 297.440186,711.989624 
	C298.632263,712.746277 299.887268,713.502014 301.219238,713.922729 
	C306.389038,715.555542 311.606903,717.035400 316.796631,718.606140 
	C320.881805,719.842529 324.907776,722.013550 329.037323,722.219482 
	C339.511047,722.741760 350.035461,722.590881 360.521088,722.205505 
	C362.350433,722.138245 365.305847,719.848022 365.626740,718.178101 
	C366.385010,714.232544 365.870239,710.042236 365.870239,706.925964 
	C359.506378,704.837708 353.911163,703.456970 348.696320,701.198120 
	C336.960388,696.114502 326.871582,688.789307 320.102264,677.634521 
	C318.227081,674.544556 317.048248,671.037415 315.242462,667.898682 
	C311.999634,662.262146 310.387421,656.310364 310.880280,649.804626 
	C310.900757,649.533813 310.571716,649.242371 310.421875,648.952026 
	C307.726440,643.730164 308.634094,633.294312 312.660004,629.288757 
	C316.124298,625.842041 319.076416,622.273682 324.563141,620.524780 
	C331.502258,618.312683 335.784607,621.017456 340.610596,624.335388 
	C348.217804,629.565491 345.918732,638.727295 349.049469,645.738647 
	C350.654358,649.332764 351.674194,653.325012 353.894714,656.477905 
	C358.160461,662.534973 364.566223,665.547058 371.417786,666.673828 
	C375.197388,659.037354 376.545013,650.502441 382.258636,643.438416 
	C387.294281,637.212585 393.795990,633.596558 401.152405,635.785828 
	C401.925964,636.015991 402.877136,635.688171 403.625854,635.955505 
	C405.686310,636.691284 407.939484,637.253845 409.661407,638.509094 
	C418.268677,644.783447 418.334473,659.120972 413.398071,667.728394 
	C407.441071,678.115417 403.481262,689.386292 403.979309,701.629211 
	C404.208679,707.266846 404.829590,712.978577 406.117004,718.458435 
	C407.483521,724.274902 409.537354,729.990112 411.886993,735.495178 
	C413.557159,739.408264 416.247253,742.880798 418.426056,746.583008 
	C424.191254,756.379272 432.570526,763.402161 442.362183,768.800415 
	C447.804169,771.800598 452.996307,775.112183 459.718201,775.552185 
	C466.509308,775.996704 473.179657,778.994995 479.934174,779.115112 
	C489.060303,779.277222 497.782013,776.263611 506.556763,773.417969 
	C516.893250,770.065857 525.383118,764.601746 532.767273,756.953308 
	C534.838989,754.807434 536.929871,752.676575 539.087097,750.617493 
	C542.920837,746.958252 547.815552,745.874146 552.819641,745.737183 
	C554.912354,745.679993 557.020264,747.094360 559.160889,747.700073 
	C564.829773,749.304016 570.498657,750.916931 576.208435,752.365479 
	C581.599304,753.733154 587.045959,755.961487 592.461365,755.941956 
	C606.570740,755.891174 620.824829,757.886292 634.781555,754.053711 
	C639.519165,752.752686 644.531982,752.137756 648.990295,750.215088 
	C654.687134,747.758240 668.210999,753.859985 669.398438,757.477356 
	C671.278015,763.203125 675.519531,768.172668 672.130554,775.505005 
	C669.145020,781.964172 663.794739,788.694275 656.667969,789.942261 
	C649.159424,791.257141 641.706970,792.892212 634.229980,794.387390 
	C633.947144,794.897827 633.664307,795.408264 633.381470,795.918701 
	C637.151184,799.310364 640.397095,803.842896 644.796570,805.862976 
	C654.837097,810.473267 662.199829,819.328125 673.345093,822.297180 
	C681.382751,824.438354 688.942200,828.508118 696.563782,832.043518 
	C705.902954,836.375549 715.629944,840.215881 724.172546,845.818970 
	C731.887146,850.878967 738.881470,857.457764 744.988586,864.423218 
	C750.493347,870.701843 756.469116,873.695068 764.406006,872.037354 
	C767.705627,871.348267 771.823547,870.047424 773.590271,867.597595 
	C776.327148,863.802307 779.703125,858.147522 778.683044,854.405884 
	C775.820618,843.907227 770.932190,833.947571 766.592041,823.883606 
	C766.105713,822.755798 763.896362,821.544861 762.684265,821.722839 
	C759.889526,822.133179 757.177063,823.270569 754.501831,824.297180 
	C745.909058,827.594727 737.257629,830.566345 727.847046,829.970886 
	C726.888000,829.910156 725.833496,829.830566 725.009338,829.401917 
	C716.280640,824.861450 711.470459,818.419128 711.626831,807.783142 
	C711.800049,796.007568 720.045837,789.181519 729.174500,788.072266 
	C737.321838,787.082275 744.554749,784.070435 752.042053,781.436401 
	C759.767578,778.718567 766.956665,775.116882 773.283813,769.713379 
	C776.764954,766.740356 781.327209,765.033142 784.807922,762.059753 
	C789.582275,757.981262 793.792603,753.242615 799.180664,747.850159 
	C794.109863,748.694092 790.691833,749.316162 787.255493,749.811646 
	C785.623352,750.046936 783.725220,749.560059 782.343689,750.224182 
	C774.879333,753.812805 767.054871,751.861633 759.484497,751.535278 
	C753.711426,751.286499 747.999512,749.162048 742.305298,747.697327 
	C738.325073,746.673523 734.217468,745.794434 730.520691,744.085205 
	C719.338257,738.915222 707.744690,734.369629 698.816467,725.308777 
	C698.228088,724.711731 696.419312,725.013123 695.287231,725.310913 
	C691.314880,726.355835 687.367859,728.604248 683.452332,728.518372 
	C676.182983,728.358948 668.993835,729.664001 661.494812,727.068909 
	C654.581421,724.676575 647.695435,723.328308 641.414246,718.789978 
	C632.900696,712.638672 625.382568,705.966980 619.862732,696.967468 
	C615.929626,690.555054 615.525146,683.344055 617.509033,676.987183 
	C621.849670,663.078613 640.490356,661.580566 648.861267,671.113098 
	C650.870850,673.401550 652.475220,676.042419 654.314819,678.484436 
	C658.028076,683.413940 662.863953,687.257019 668.813843,688.305115 
	C673.736389,689.172241 679.383362,689.320679 683.997925,687.727295 
	C690.496460,685.483154 695.427551,680.312378 698.167480,673.769531 
	C699.624695,670.289795 702.181335,665.448853 700.888000,662.976868 
	C696.825684,655.212341 696.669128,647.209961 697.274170,639.115417 
	C697.542175,635.529053 699.234497,631.624695 701.399841,628.691040 
	C706.254578,622.113953 713.896423,622.253723 720.680664,623.647400 
	C724.415710,624.414673 728.924988,627.927246 730.502502,631.381592 
	C734.240967,639.567688 737.719055,648.289795 738.875977,657.113342 
	C739.907349,664.978699 738.411011,673.432800 736.658386,681.322327 
	C735.315796,687.365784 731.834717,692.934143 729.330750,698.654541 
	C732.882080,702.951782 737.681274,704.297119 742.676575,706.100769 
	C751.044739,709.122192 759.455383,711.347900 768.240540,711.767639 
	C778.340820,712.250244 787.695496,708.773438 797.317261,706.053284 
	C806.431335,703.476685 813.078247,697.600098 820.384216,692.662170 
	C827.132874,688.100952 831.575195,681.001892 835.402161,673.761047 
	C840.925903,663.310120 845.120728,652.653076 845.035828,640.365845 
	C844.998901,635.036133 844.537415,629.689575 844.612000,624.341187 
	C844.655212,621.242859 843.302734,618.136169 842.671692,615.014343 
	C842.035156,611.865417 840.455017,612.294739 838.450256,613.737549 
	C836.238770,615.329102 834.045654,616.960754 831.731079,618.391296 
	C827.054565,621.281555 821.783447,622.154602 816.603821,620.901978 
	C810.288513,619.374756 802.951782,610.657715 802.545288,605.394897 
	C801.627808,593.515686 804.734314,587.929016 814.161499,582.965820 
	C824.409790,577.570312 831.845154,569.352356 833.919067,558.027588 
	C836.032593,546.486572 833.523132,535.393860 824.972656,526.467285 
	C818.977295,520.208252 812.329407,515.254150 803.015259,515.633972 
	C802.155762,515.669006 801.293274,514.847595 800.383484,514.611450 
	C798.849854,514.213257 796.866455,513.201050 795.788635,513.780334 
	C789.494690,517.162720 781.643616,516.095215 775.918884,521.654541 
	C773.199158,524.295715 768.169983,526.283630 764.531311,525.826599 
	C759.744690,525.225342 754.805237,522.589966 750.810425,519.639343 
	C743.363159,514.138794 744.076294,499.313110 750.314209,492.721863 
	C756.219543,486.482086 763.930908,483.739716 771.022339,479.704163 
	C772.734253,478.730011 775.152405,476.077728 774.811401,474.904999 
	C773.045532,468.831909 770.930115,462.770142 768.121094,457.109009 
	C761.665833,444.099670 754.145264,431.850372 743.504517,421.572845 
	C735.969788,414.295349 727.758911,408.202911 718.598450,403.358734 
	C713.830139,400.837189 708.486450,399.387268 703.772583,396.783508 
	C697.585510,393.366058 691.022827,391.867615 684.132080,391.226044 
	C682.999512,391.120575 681.864075,390.941589 680.757874,390.678986 
	C678.046082,390.035309 675.350464,389.322937 673.647156,388.891327 
	C671.317078,394.559387 669.671936,399.173370 667.509094,403.530457 
	C666.607056,405.347687 664.828918,407.520691 663.057251,407.963409 
	C658.245972,409.165649 653.198303,410.243835 648.293579,410.059937 
	C640.751709,409.777161 633.992737,403.333405 633.989929,395.590790 
	C633.987427,388.554291 632.433960,382.153900 629.502075,375.995331 
	C624.326416,365.123535 615.719116,357.756592 604.002869,355.711334 
	C598.242737,354.705841 592.004272,355.320038 585.665344,356.985382 
	C575.867859,359.559418 571.200562,367.262939 564.646362,373.123505 
	C563.252686,374.369720 562.532043,376.746124 562.191833,378.720764 
	C561.259094,384.134857 561.169495,389.733124 559.825256,395.024567 
	C558.840576,398.901031 557.000671,402.906250 554.465881,405.961151 
	C550.744995,410.445435 545.097107,410.240479 539.599915,410.310242 
	C527.133118,410.468414 522.793274,402.504211 522.200623,392.750336 
	C521.853943,387.044647 523.413025,381.223175 524.116455,374.590942 
z"/>
<path fill="#FCFAFA" opacity="1.000000" stroke="none" 
	d="
M948.159790,477.764709 
	C939.416809,481.294708 931.078674,484.807556 922.739990,488.318939 
	C918.516602,490.097443 914.322754,491.952240 910.051392,493.606964 
	C908.594116,494.171539 906.690369,494.887848 905.421753,494.404083 
	C900.517883,492.534210 895.519531,490.873718 892.106140,486.225952 
	C888.725403,481.622559 886.066345,476.621460 887.136230,471.118469 
	C888.646912,463.348999 893.561646,457.835419 901.042969,454.497833 
	C909.146118,450.882843 916.898560,446.482056 925.000366,442.863739 
	C931.343445,440.030853 938.165527,438.248260 944.436218,435.283173 
	C949.034363,433.108948 953.253845,430.911255 958.645508,431.175079 
	C965.660706,431.518280 975.326111,441.047028 975.641663,448.146393 
	C976.014648,456.537354 975.447876,464.517944 967.699280,469.518402 
	C963.629761,472.144653 958.841736,473.669952 954.344666,475.615051 
	C952.462646,476.429138 950.493774,477.042389 948.159790,477.764709 
z"/>
<path fill="#FCFAFA" opacity="1.000000" stroke="none" 
	d="
M118.148788,471.672028 
	C112.024590,469.442505 106.561508,462.105255 106.440758,456.387970 
	C106.295105,449.491547 106.213364,442.982544 111.818550,437.326111 
	C118.440552,430.643616 126.868576,429.691803 135.390366,433.759277 
	C141.933517,436.882385 148.879028,439.153778 155.589783,441.938446 
	C158.531769,443.159241 161.693924,444.264191 164.131165,446.206085 
	C170.523315,451.299072 178.867020,452.390228 185.355240,456.889587 
	C188.973495,459.398682 193.812271,462.048096 193.002228,468.056763 
	C192.895782,468.846497 192.898514,469.886566 193.319580,470.475372 
	C197.526627,476.358551 193.163391,480.825409 190.592117,485.259857 
	C187.621841,490.382385 182.299393,493.194916 176.795242,494.221832 
	C173.485809,494.839264 169.479935,493.390656 166.161728,491.985657 
	C155.655396,487.536987 145.375137,482.557251 134.906418,478.015747 
	C129.552124,475.692932 123.982414,473.866638 118.148788,471.672028 
z"/>
<path fill="#FCFAFA" opacity="1.000000" stroke="none" 
	d="
M408.122986,261.546082 
	C404.859802,271.750854 396.902222,278.615234 386.313507,277.417389 
	C380.729309,276.785645 373.626740,270.414703 372.087128,265.137238 
	C370.590057,260.005798 367.947754,255.217133 365.952454,250.220383 
	C363.017426,242.870255 360.272552,235.444092 357.330261,228.096970 
	C354.681396,221.482605 350.950867,215.128281 349.489563,208.277023 
	C348.626007,204.228043 350.381531,198.968079 352.493042,195.087189 
	C355.802094,189.005219 362.073822,186.299759 368.750397,185.052765 
	C372.719543,184.311447 383.096802,190.878662 384.930206,194.895752 
	C388.290192,202.257721 391.929901,209.499344 395.070770,216.952225 
	C399.558990,227.602188 404.033295,238.282974 407.807007,249.194931 
	C409.044098,252.772034 408.081543,257.109863 408.122986,261.546082 
z"/>
<path fill="#FCFAFA" opacity="1.000000" stroke="none" 
	d="
M689.582520,277.349823 
	C676.608521,272.561951 670.453369,261.583344 674.065979,249.480270 
	C675.506714,244.653641 678.190857,240.209717 680.129517,235.517456 
	C683.031738,228.492722 685.698242,221.370483 688.609314,214.349533 
	C691.348083,207.744217 694.125671,201.146805 697.167603,194.678207 
	C699.300964,190.141571 703.531738,187.530533 708.130859,186.759796 
	C716.279358,185.394287 723.599182,187.298813 729.083679,194.300522 
	C732.336487,198.453079 733.376709,205.534485 731.456116,210.420288 
	C728.203003,218.696213 725.492004,227.183838 722.318359,235.492813 
	C720.226501,240.969513 717.631226,246.251846 715.431396,251.689987 
	C713.419434,256.663818 711.438843,261.667511 709.817322,266.776428 
	C708.627991,270.523987 700.065308,277.196106 695.497559,277.343842 
	C693.667480,277.403046 691.833923,277.352783 689.582520,277.349823 
z"/>
<path fill="#FCF9F9" opacity="1.000000" stroke="none" 
	d="
M857.403564,335.395203 
	C853.776794,339.060608 850.509155,342.608551 846.905029,345.773224 
	C841.738037,350.310120 836.048035,353.696228 828.698486,353.349487 
	C822.542908,353.059082 814.661133,346.286560 812.968628,340.408142 
	C811.559326,335.513214 810.824890,330.945221 813.080811,326.218018 
	C813.422974,325.501007 813.411072,324.530273 813.903076,323.982178 
	C820.454590,316.683960 826.766663,309.135925 833.738708,302.258759 
	C842.757324,293.362885 856.484497,294.669830 862.783508,300.598450 
	C869.208313,306.645447 870.094360,318.853394 864.722473,325.923370 
	C862.380432,329.005707 859.984009,332.046753 857.403564,335.395203 
z"/>
<path fill="#FCF9F9" opacity="1.000000" stroke="none" 
	d="
M268.917084,328.400391 
	C268.917175,331.013458 268.917297,333.174805 268.917175,335.336121 
	C268.916779,342.794952 265.009796,347.830109 258.535736,351.296783 
	C249.498947,356.135712 242.567215,351.761169 236.145493,346.701721 
	C230.472549,342.232239 225.695465,336.613953 220.595810,331.431061 
	C211.355698,322.040070 211.918243,307.083588 219.362457,300.414490 
	C225.150131,295.229492 237.535538,294.532410 243.550842,299.412720 
	C247.817978,302.874695 252.291092,306.152039 256.145996,310.034332 
	C260.387238,314.305664 264.112488,319.106750 267.858215,323.838776 
	C268.660858,324.852783 268.587036,326.560516 268.917084,328.400391 
z"/>
<path fill="#FCF9F9" opacity="1.000000" stroke="none" 
	d="
M546.497192,171.827118 
	C552.826538,171.385803 555.343323,176.069199 557.629700,179.911209 
	C559.393921,182.875748 559.702576,186.930954 559.913330,190.544708 
	C560.261169,196.509216 560.015808,202.508835 560.005920,208.493622 
	C559.990723,217.693451 550.925415,226.507767 541.739319,226.814316 
	C536.550476,226.987457 532.278931,226.259399 528.603149,222.014603 
	C524.755981,217.571915 521.570618,213.303314 521.909973,206.969681 
	C522.274170,200.173172 521.961792,193.341858 522.003723,186.526093 
	C522.028748,182.456558 528.009216,172.667618 531.639465,172.118073 
	C536.353699,171.404434 541.246277,171.869385 546.497192,171.827118 
z"/>
<path fill="#7B0202" opacity="1.000000" stroke="none" 
	d="
M524.115601,375.022369 
	C523.413025,381.223175 521.853943,387.044647 522.200623,392.750336 
	C522.793274,402.504211 527.133118,410.468414 539.599915,410.310242 
	C545.097107,410.240479 550.744995,410.445435 554.465881,405.961151 
	C557.000671,402.906250 558.840576,398.901031 559.825256,395.024567 
	C561.169495,389.733124 561.259094,384.134857 562.191833,378.720764 
	C562.532043,376.746124 563.252686,374.369720 564.646362,373.123505 
	C571.200562,367.262939 575.867859,359.559418 585.665344,356.985382 
	C592.004272,355.320038 598.242737,354.705841 604.002869,355.711334 
	C615.719116,357.756592 624.326416,365.123535 629.502075,375.995331 
	C632.433960,382.153900 633.987427,388.554291 633.989929,395.590790 
	C633.992737,403.333405 640.751709,409.777161 648.293579,410.059937 
	C653.198303,410.243835 658.245972,409.165649 663.057251,407.963409 
	C664.828918,407.520691 666.607056,405.347687 667.509094,403.530457 
	C669.671936,399.173370 671.317078,394.559387 673.647156,388.891327 
	C675.350464,389.322937 678.046082,390.035309 680.757874,390.678986 
	C681.864075,390.941589 682.999512,391.120575 684.132080,391.226044 
	C691.022827,391.867615 697.585510,393.366058 703.772583,396.783508 
	C708.486450,399.387268 713.830139,400.837189 718.598450,403.358734 
	C727.758911,408.202911 735.969788,414.295349 743.504517,421.572845 
	C754.145264,431.850372 761.665833,444.099670 768.121094,457.109009 
	C770.930115,462.770142 773.045532,468.831909 774.811401,474.904999 
	C775.152405,476.077728 772.734253,478.730011 771.022339,479.704163 
	C763.930908,483.739716 756.219543,486.482086 750.314209,492.721863 
	C744.076294,499.313110 743.363159,514.138794 750.810425,519.639343 
	C754.805237,522.589966 759.744690,525.225342 764.531311,525.826599 
	C768.169983,526.283630 773.199158,524.295715 775.918884,521.654541 
	C781.643616,516.095215 789.494690,517.162720 795.788635,513.780334 
	C796.866455,513.201050 798.849854,514.213257 800.383484,514.611450 
	C801.293274,514.847595 802.155762,515.669006 803.015259,515.633972 
	C812.329407,515.254150 818.977295,520.208252 824.972656,526.467285 
	C833.523132,535.393860 836.032593,546.486572 833.919067,558.027588 
	C831.845154,569.352356 824.409790,577.570312 814.161499,582.965820 
	C804.734314,587.929016 801.627808,593.515686 802.545288,605.394897 
	C802.951782,610.657715 810.288513,619.374756 816.603821,620.901978 
	C821.783447,622.154602 827.054565,621.281555 831.731079,618.391296 
	C834.045654,616.960754 836.238770,615.329102 838.450256,613.737549 
	C840.455017,612.294739 842.035156,611.865417 842.671692,615.014343 
	C843.302734,618.136169 844.655212,621.242859 844.612000,624.341187 
	C844.537415,629.689575 844.998901,635.036133 845.035828,640.365845 
	C845.120728,652.653076 840.925903,663.310120 835.402161,673.761047 
	C831.575195,681.001892 827.132874,688.100952 820.384216,692.662170 
	C813.078247,697.600098 806.431335,703.476685 797.317261,706.053284 
	C787.695496,708.773438 778.340820,712.250244 768.240540,711.767639 
	C759.455383,711.347900 751.044739,709.122192 742.676575,706.100769 
	C737.681274,704.297119 732.882080,702.951782 729.330750,698.654541 
	C731.834717,692.934143 735.315796,687.365784 736.658386,681.322327 
	C738.411011,673.432800 739.907349,664.978699 738.875977,657.113342 
	C737.719055,648.289795 734.240967,639.567688 730.502502,631.381592 
	C728.924988,627.927246 724.415710,624.414673 720.680664,623.647400 
	C713.896423,622.253723 706.254578,622.113953 701.399841,628.691040 
	C699.234497,631.624695 697.542175,635.529053 697.274170,639.115417 
	C696.669128,647.209961 696.825684,655.212341 700.888000,662.976868 
	C702.181335,665.448853 699.624695,670.289795 698.167480,673.769531 
	C695.427551,680.312378 690.496460,685.483154 683.997925,687.727295 
	C679.383362,689.320679 673.736389,689.172241 668.813843,688.305115 
	C662.863953,687.257019 658.028076,683.413940 654.314819,678.484436 
	C652.475220,676.042419 650.870850,673.401550 648.861267,671.113098 
	C640.490356,661.580566 621.849670,663.078613 617.509033,676.987183 
	C615.525146,683.344055 615.929626,690.555054 619.862732,696.967468 
	C625.382568,705.966980 632.900696,712.638672 641.414246,718.789978 
	C647.695435,723.328308 654.581421,724.676575 661.494812,727.068909 
	C668.993835,729.664001 676.182983,728.358948 683.452332,728.518372 
	C687.367859,728.604248 691.314880,726.355835 695.287231,725.310913 
	C696.419312,725.013123 698.228088,724.711731 698.816467,725.308777 
	C707.744690,734.369629 719.338257,738.915222 730.520691,744.085205 
	C734.217468,745.794434 738.325073,746.673523 742.305298,747.697327 
	C747.999512,749.162048 753.711426,751.286499 759.484497,751.535278 
	C767.054871,751.861633 774.879333,753.812805 782.343689,750.224182 
	C783.725220,749.560059 785.623352,750.046936 787.255493,749.811646 
	C790.691833,749.316162 794.109863,748.694092 799.180664,747.850159 
	C793.792603,753.242615 789.582275,757.981262 784.807922,762.059753 
	C781.327209,765.033142 776.764954,766.740356 773.283813,769.713379 
	C766.956665,775.116882 759.767578,778.718567 752.042053,781.436401 
	C744.554749,784.070435 737.321838,787.082275 729.174500,788.072266 
	C720.045837,789.181519 711.800049,796.007568 711.626831,807.783142 
	C711.470459,818.419128 716.280640,824.861450 725.009338,829.401917 
	C725.833496,829.830566 726.888000,829.910156 727.847046,829.970886 
	C737.257629,830.566345 745.909058,827.594727 754.501831,824.297180 
	C757.177063,823.270569 759.889526,822.133179 762.684265,821.722839 
	C763.896362,821.544861 766.105713,822.755798 766.592041,823.883606 
	C770.932190,833.947571 775.820618,843.907227 778.683044,854.405884 
	C779.703125,858.147522 776.327148,863.802307 773.590271,867.597595 
	C771.823547,870.047424 767.705627,871.348267 764.406006,872.037354 
	C756.469116,873.695068 750.493347,870.701843 744.988586,864.423218 
	C738.881470,857.457764 731.887146,850.878967 724.172546,845.818970 
	C715.629944,840.215881 705.902954,836.375549 696.563782,832.043518 
	C688.942200,828.508118 681.382751,824.438354 673.345093,822.297180 
	C662.199829,819.328125 654.837097,810.473267 644.796570,805.862976 
	C640.397095,803.842896 637.151184,799.310364 633.381470,795.918701 
	C633.664307,795.408264 633.947144,794.897827 634.229980,794.387390 
	C641.706970,792.892212 649.159424,791.257141 656.667969,789.942261 
	C663.794739,788.694275 669.145020,781.964172 672.130554,775.505005 
	C675.519531,768.172668 671.278015,763.203125 669.398438,757.477356 
	C668.210999,753.859985 654.687134,747.758240 648.990295,750.215088 
	C644.531982,752.137756 639.519165,752.752686 634.781555,754.053711 
	C620.824829,757.886292 606.570740,755.891174 592.461365,755.941956 
	C587.045959,755.961487 581.599304,753.733154 576.208435,752.365479 
	C570.498657,750.916931 564.829773,749.304016 559.160889,747.700073 
	C557.020264,747.094360 554.912354,745.679993 552.819641,745.737183 
	C547.815552,745.874146 542.920837,746.958252 539.087097,750.617493 
	C536.929871,752.676575 534.838989,754.807434 532.767273,756.953308 
	C525.383118,764.601746 516.893250,770.065857 506.556763,773.417969 
	C497.782013,776.263611 489.060303,779.277222 479.934174,779.115112 
	C473.179657,778.994995 466.509308,775.996704 459.718201,775.552185 
	C452.996307,775.112183 447.804169,771.800598 442.362183,768.800415 
	C432.570526,763.402161 424.191254,756.379272 418.426056,746.583008 
	C416.247253,742.880798 413.557159,739.408264 411.886993,735.495178 
	C409.537354,729.990112 407.483521,724.274902 406.117004,718.458435 
	C404.829590,712.978577 404.208679,707.266846 403.979309,701.629211 
	C403.481262,689.386292 407.441071,678.115417 413.398071,667.728394 
	C418.334473,659.120972 418.268677,644.783447 409.661407,638.509094 
	C407.939484,637.253845 405.686310,636.691284 403.625854,635.955505 
	C402.877136,635.688171 401.925964,636.015991 401.152405,635.785828 
	C393.795990,633.596558 387.294281,637.212585 382.258636,643.438416 
	C376.545013,650.502441 375.197388,659.037354 371.417786,666.673828 
	C364.566223,665.547058 358.160461,662.534973 353.894714,656.477905 
	C351.674194,653.325012 350.654358,649.332764 349.049469,645.738647 
	C345.918732,638.727295 348.217804,629.565491 340.610596,624.335388 
	C335.784607,621.017456 331.502258,618.312683 324.563141,620.524780 
	C319.076416,622.273682 316.124298,625.842041 312.660004,629.288757 
	C308.634094,633.294312 307.726440,643.730164 310.421875,648.952026 
	C310.571716,649.242371 310.900757,649.533813 310.880280,649.804626 
	C310.387421,656.310364 311.999634,662.262146 315.242462,667.898682 
	C317.048248,671.037415 318.227081,674.544556 320.102264,677.634521 
	C326.871582,688.789307 336.960388,696.114502 348.696320,701.198120 
	C353.911163,703.456970 359.506378,704.837708 365.870239,706.925964 
	C365.870239,710.042236 366.385010,714.232544 365.626740,718.178101 
	C365.305847,719.848022 362.350433,722.138245 360.521088,722.205505 
	C350.035461,722.590881 339.511047,722.741760 329.037323,722.219482 
	C324.907776,722.013550 320.881805,719.842529 316.796631,718.606140 
	C311.606903,717.035400 306.389038,715.555542 301.219238,713.922729 
	C299.887268,713.502014 298.632263,712.746277 297.440186,711.989624 
	C291.508759,708.224670 285.443298,704.639404 279.752502,700.536682 
	C275.161407,697.226685 270.965118,693.350647 266.719269,689.584106 
	C257.624542,681.516113 251.548615,671.145508 246.339813,660.477295 
	C242.969162,653.573853 242.247528,645.409485 239.150894,638.329773 
	C236.515732,632.305115 237.803955,626.364197 237.210602,620.401245 
	C237.088150,619.170715 236.152740,618.003418 236.104752,616.786804 
	C235.995132,614.007629 236.123077,611.210388 236.321762,608.432373 
	C236.398956,607.353149 237.077194,606.326660 237.224457,605.241211 
	C237.983963,599.642639 238.354111,593.971924 239.453415,588.444397 
	C240.498398,583.190002 242.275208,578.081299 243.742584,572.864563 
	C248.999100,576.226929 253.544678,579.582886 258.487305,582.184509 
	C264.905823,585.563049 272.126862,585.499023 277.884369,579.533813 
	C282.300171,574.958679 286.004883,570.610107 285.912598,563.620972 
	C285.815735,556.285156 281.783752,551.129272 276.499084,547.952576 
	C270.593018,544.402283 266.108368,540.034241 263.263184,534.167053 
	C260.417755,528.299316 257.218140,522.170471 258.417023,515.301636 
	C260.344269,504.260010 263.791199,494.710175 274.114960,487.457031 
	C280.613861,482.891144 287.652527,481.045685 294.081116,480.535950 
	C300.317413,480.041473 308.231506,480.777161 313.981537,485.914917 
	C319.196930,490.574951 324.489410,495.156281 329.888916,499.601044 
	C337.473145,505.844269 352.012970,504.059784 355.613129,493.563812 
	C356.580688,490.742889 359.357788,488.153351 359.335663,485.473846 
	C359.302734,481.486298 358.281036,477.087433 356.338684,473.613678 
	C350.504120,463.178955 341.021698,456.572723 331.351929,449.773132 
	C323.241821,444.070374 314.015472,442.693970 304.779816,438.629761 
	C307.566864,433.236755 309.927521,427.324738 313.465546,422.230377 
	C316.522278,417.829010 320.463196,413.708008 324.840485,410.645447 
	C329.846527,407.143005 335.539001,404.227661 341.354279,402.388611 
	C346.984863,400.607971 353.131958,400.323822 359.088104,399.765228 
	C362.232574,399.470306 362.322205,401.640930 360.849854,403.636963 
	C354.595428,412.116180 357.290131,420.443390 362.161285,427.922577 
	C364.011047,430.762726 368.708191,432.702484 372.362885,433.208496 
	C379.336914,434.174072 386.941650,434.379974 391.541595,427.559967 
	C394.233459,423.568909 395.860382,418.776794 397.504517,414.179871 
	C400.535675,405.704865 404.011383,397.531860 409.900085,390.565887 
	C413.143555,386.729004 415.615204,381.953552 419.499939,379.004303 
	C427.640656,372.824097 436.164124,366.968048 445.165619,362.170868 
	C450.353210,359.406219 457.115662,359.720428 462.566376,357.294373 
	C469.368195,354.266907 476.194580,355.443146 482.967621,355.502045 
	C495.294647,355.609222 506.973053,358.797607 517.806274,364.855927 
	C520.328918,366.266724 522.988831,367.431946 525.339417,368.588989 
	C524.927063,370.612732 524.521790,372.601837 524.115601,375.022369 
M558.238953,678.724304 
	C562.498108,673.082458 566.974243,667.587585 570.935730,661.743958 
	C573.340515,658.196594 574.784485,654.011108 576.995667,650.312988 
	C577.914917,648.775574 579.513306,647.120483 581.140015,646.624390 
	C586.911316,644.864197 593.097656,644.240601 598.632996,641.978455 
	C609.968750,637.345642 620.198853,630.498596 629.256042,622.386475 
	C641.009949,611.859070 651.801025,600.477295 658.175354,585.422241 
	C662.955627,574.132324 668.935242,563.294373 667.425232,550.545776 
	C666.996338,546.925049 665.424072,543.054565 663.270081,540.106873 
	C659.294800,534.666748 653.117493,534.382812 646.842468,534.601318 
	C639.246643,534.865845 630.142761,543.820068 629.461121,551.474609 
	C629.142883,555.049194 628.008850,558.745178 626.404785,561.968262 
	C623.640564,567.522278 620.805298,573.226318 616.924744,577.992065 
	C612.197876,583.797119 606.700439,589.117371 600.879700,593.837646 
	C597.158630,596.855164 592.345825,598.633118 587.847107,600.556763 
	C582.758728,602.732544 577.594177,605.572205 572.251160,606.143127 
	C559.193237,607.538391 545.951294,606.773499 533.705261,601.772095 
	C523.292297,597.519226 514.068237,590.954651 505.860931,583.022278 
	C501.209900,578.527039 496.309601,576.109741 488.772278,578.511719 
	C479.373932,581.506714 475.890259,588.252258 473.665558,596.203247 
	C472.106750,601.774292 475.900055,606.877197 479.176361,610.573669 
	C485.205750,617.376343 492.427155,623.158691 499.402435,629.070435 
	C502.547760,631.736145 506.091888,634.121094 509.811249,635.880371 
	C517.660828,639.593384 525.744995,642.810303 534.339844,646.490601 
	C529.904907,650.053284 525.200928,654.608643 519.772339,658.006287 
	C512.077026,662.822632 503.496277,665.383240 494.230316,665.551147 
	C491.289948,665.604431 488.122131,666.422241 485.494568,667.752014 
	C479.354767,670.859497 475.041290,675.443787 475.566864,683.080688 
	C475.760925,685.900085 475.477203,688.751709 475.656006,691.573120 
	C475.732513,692.780701 476.167358,694.152344 476.893463,695.102356 
	C482.501129,702.439758 489.833191,706.345825 499.214722,705.466553 
	C501.543945,705.248352 503.892365,703.317139 506.055176,703.587463 
	C513.722229,704.545837 520.598999,701.316772 527.055115,698.725891 
	C538.310059,694.209167 549.008179,688.070068 558.238953,678.724304 
M491.412170,498.953796 
	C492.222931,498.805786 493.206635,498.903046 493.817902,498.472076 
	C500.431183,493.809082 505.818237,482.015228 501.139679,473.730438 
	C496.952881,466.316437 489.912781,460.585052 481.722961,460.926575 
	C479.420135,461.022614 477.149902,462.867096 474.888794,462.817139 
	C467.940369,462.663696 461.725250,464.888153 455.145660,466.738037 
	C445.011292,469.587433 436.799255,475.460571 429.161041,481.586365 
	C422.005066,487.325378 416.307526,495.353455 411.334259,503.236084 
	C403.322388,515.934814 399.620270,530.126831 399.518890,545.334106 
	C399.473450,552.156860 401.787933,557.251892 406.569244,561.756470 
	C411.615845,566.511108 417.862701,567.799927 423.873383,565.867859 
	C431.496887,563.417419 438.224457,555.129272 437.636841,548.714233 
	C436.966858,541.399841 438.646545,534.607422 441.883545,528.104187 
	C446.392883,519.044617 452.134949,511.503174 461.760315,506.878967 
	C469.683929,503.072327 477.613495,500.873138 486.313354,500.860413 
	C487.792023,500.858246 489.269287,499.928650 491.412170,498.953796 
z"/>
<path fill="#FDFBFB" opacity="1.000000" stroke="none" 
	d="
M558.018188,679.008057 
	C549.008179,688.070068 538.310059,694.209167 527.055115,698.725891 
	C520.598999,701.316772 513.722229,704.545837 506.055176,703.587463 
	C503.892365,703.317139 501.543945,705.248352 499.214722,705.466553 
	C489.833191,706.345825 482.501129,702.439758 476.893463,695.102356 
	C476.167358,694.152344 475.732513,692.780701 475.656006,691.573120 
	C475.477203,688.751709 475.760925,685.900085 475.566864,683.080688 
	C475.041290,675.443787 479.354767,670.859497 485.494568,667.752014 
	C488.122131,666.422241 491.289948,665.604431 494.230316,665.551147 
	C503.496277,665.383240 512.077026,662.822632 519.772339,658.006287 
	C525.200928,654.608643 529.904907,650.053284 534.339844,646.490601 
	C525.744995,642.810303 517.660828,639.593384 509.811249,635.880371 
	C506.091888,634.121094 502.547760,631.736145 499.402435,629.070435 
	C492.427155,623.158691 485.205750,617.376343 479.176361,610.573669 
	C475.900055,606.877197 472.106750,601.774292 473.665558,596.203247 
	C475.890259,588.252258 479.373932,581.506714 488.772278,578.511719 
	C496.309601,576.109741 501.209900,578.527039 505.860931,583.022278 
	C514.068237,590.954651 523.292297,597.519226 533.705261,601.772095 
	C545.951294,606.773499 559.193237,607.538391 572.251160,606.143127 
	C577.594177,605.572205 582.758728,602.732544 587.847107,600.556763 
	C592.345825,598.633118 597.158630,596.855164 600.879700,593.837646 
	C606.700439,589.117371 612.197876,583.797119 616.924744,577.992065 
	C620.805298,573.226318 623.640564,567.522278 626.404785,561.968262 
	C628.008850,558.745178 629.142883,555.049194 629.461121,551.474609 
	C630.142761,543.820068 639.246643,534.865845 646.842468,534.601318 
	C653.117493,534.382812 659.294800,534.666748 663.270081,540.106873 
	C665.424072,543.054565 666.996338,546.925049 667.425232,550.545776 
	C668.935242,563.294373 662.955627,574.132324 658.175354,585.422241 
	C651.801025,600.477295 641.009949,611.859070 629.256042,622.386475 
	C620.198853,630.498596 609.968750,637.345642 598.632996,641.978455 
	C593.097656,644.240601 586.911316,644.864197 581.140015,646.624390 
	C579.513306,647.120483 577.914917,648.775574 576.995667,650.312988 
	C574.784485,654.011108 573.340515,658.196594 570.935730,661.743958 
	C566.974243,667.587585 562.498108,673.082458 558.018188,679.008057 
z"/>
<path fill="#FDFAFA" opacity="1.000000" stroke="none" 
	d="
M491.079712,499.190643 
	C489.269287,499.928650 487.792023,500.858246 486.313354,500.860413 
	C477.613495,500.873138 469.683929,503.072327 461.760315,506.878967 
	C452.134949,511.503174 446.392883,519.044617 441.883545,528.104187 
	C438.646545,534.607422 436.966858,541.399841 437.636841,548.714233 
	C438.224457,555.129272 431.496887,563.417419 423.873383,565.867859 
	C417.862701,567.799927 411.615845,566.511108 406.569244,561.756470 
	C401.787933,557.251892 399.473450,552.156860 399.518890,545.334106 
	C399.620270,530.126831 403.322388,515.934814 411.334259,503.236084 
	C416.307526,495.353455 422.005066,487.325378 429.161041,481.586365 
	C436.799255,475.460571 445.011292,469.587433 455.145660,466.738037 
	C461.725250,464.888153 467.940369,462.663696 474.888794,462.817139 
	C477.149902,462.867096 479.420135,461.022614 481.722961,460.926575 
	C489.912781,460.585052 496.952881,466.316437 501.139679,473.730438 
	C505.818237,482.015228 500.431183,493.809082 493.817902,498.472076 
	C493.206635,498.903046 492.222931,498.805786 491.079712,499.190643 
z"/>
</svg>